<?xml version="1.0" encoding="iso-8859-1"?>
<!-- Generator: Adobe Illustrator 16.0.0, SVG Export Plug-In . SVG Version: 6.00 Build 0)  -->
<!DOCTYPE svg PUBLIC "-//W3C//DTD SVG 1.1//EN" "http://www.w3.org/Graphics/SVG/1.1/DTD/svg11.dtd">
<svg version="1.1" id="&#x5716;&#x5C64;_1" xmlns="http://www.w3.org/2000/svg" xmlns:xlink="http://www.w3.org/1999/xlink" x="0px"
	 y="0px" width="566.93px" height="595.28px" viewBox="0 0 566.93 595.28" style="enable-background:new 0 0 566.93 595.28;"
	 xml:space="preserve">
<g>
	<g>
		<path style="fill-rule:evenodd;clip-rule:evenodd;fill:#EA5514;stroke:#FFF100;" d="M492.604,262.709l-0.008-0.013
			c0.026-0.016,0.057-0.016,0.082-0.031c0.865-0.515,1.45-1.342,1.678-2.254c0.2-0.894,0.06-1.863-0.47-2.699
			c-0.529-0.834-1.346-1.374-2.238-1.574c-0.864-0.217-1.806-0.11-2.638,0.386c-0.025,0.015-0.038,0.04-0.063,0.055l-0.011-0.017
			c0,0-1.518,0.886-3.035,1.771c-1.537,0.865-3.074,1.731-3.074,1.731l3.474,6.259c0,0,1.579-0.89,3.159-1.779
			C491.032,263.627,492.604,262.709,492.604,262.709z"/>
	</g>
	<g>
		<path style="fill-rule:evenodd;clip-rule:evenodd;fill:#EA5514;stroke:#FFF100;" d="M479.931,269.785c0,0,1.599-0.852,3.198-1.703
			c1.591-0.87,3.182-1.74,3.182-1.74l-3.48-6.271c0,0-1.554,0.85-3.107,1.699c-1.564,0.834-3.13,1.667-3.13,1.667L479.931,269.785z"
			/>
	</g>
	<g>
		<path style="fill-rule:evenodd;clip-rule:evenodd;fill:#EA5514;stroke:#FFF100;" d="M473.491,273.089c0,0,1.613-0.817,3.228-1.636
			c1.606-0.834,3.212-1.669,3.212-1.669l-3.338-6.348c0,0-1.574,0.818-3.148,1.636c-1.584,0.803-3.167,1.605-3.167,1.605
			L473.491,273.089z"/>
	</g>
	<g>
		<path style="fill-rule:evenodd;clip-rule:evenodd;fill:#EA5514;stroke:#FFF100;" d="M466.994,276.269c0,0,1.628-0.787,3.255-1.574
			c1.621-0.803,3.242-1.605,3.242-1.605l-3.214-6.411c0,0-1.592,0.788-3.183,1.575c-1.6,0.773-3.198,1.548-3.198,1.548
			L466.994,276.269z"/>
	</g>
	<g>
		<path style="fill-rule:evenodd;clip-rule:evenodd;fill:#EA5514;stroke:#FFF100;" d="M460.447,279.337c0,0,1.64-0.761,3.279-1.521
			c1.634-0.773,3.268-1.547,3.268-1.547l-3.098-6.468c0,0-1.605,0.76-3.212,1.521c-1.611,0.747-3.224,1.495-3.224,1.495
			L460.447,279.337z"/>
	</g>
	<g>
		<path style="fill-rule:evenodd;clip-rule:evenodd;fill:#EA5514;stroke:#FFF100;" d="M453.851,282.291c0,0,1.653-0.73,3.306-1.46
			c1.646-0.747,3.291-1.493,3.291-1.493l-2.986-6.521c0,0-1.619,0.734-3.237,1.469c-1.626,0.718-3.252,1.437-3.252,1.437
			L453.851,282.291z"/>
	</g>
	<g>
		<path style="fill-rule:evenodd;clip-rule:evenodd;fill:#EA5514;stroke:#FFF100;" d="M447.212,285.143c0,0,1.662-0.708,3.324-1.416
			c1.657-0.719,3.314-1.437,3.314-1.437l-2.879-6.568c0,0-1.631,0.707-3.262,1.413c-1.636,0.697-3.271,1.394-3.271,1.394
			L447.212,285.143z"/>
	</g>
	<g>
		<path style="fill-rule:evenodd;clip-rule:evenodd;fill:#EA5514;stroke:#FFF100;" d="M440.524,287.878c0,0,1.674-0.679,3.348-1.357
			c1.67-0.688,3.34-1.378,3.34-1.378l-2.773-6.614c0,0-1.644,0.679-3.287,1.356c-1.648,0.668-3.296,1.336-3.296,1.336
			L440.524,287.878z"/>
	</g>
	<g>
		<path style="fill-rule:evenodd;clip-rule:evenodd;fill:#EA5514;stroke:#FFF100;" d="M433.797,290.512c0,0,1.686-0.648,3.371-1.297
			c1.678-0.669,3.356-1.337,3.356-1.337l-2.669-6.657c0,0-1.651,0.658-3.304,1.316c-1.659,0.639-3.319,1.277-3.319,1.277
			L433.797,290.512z"/>
	</g>
	<g>
		<path style="fill-rule:evenodd;clip-rule:evenodd;fill:#EA5514;stroke:#FFF100;" d="M427.031,293.044c0,0,1.694-0.625,3.389-1.251
			c1.688-0.641,3.377-1.281,3.377-1.281l-2.564-6.697c0,0-1.662,0.631-3.325,1.261c-1.668,0.616-3.336,1.232-3.336,1.232
			L427.031,293.044z"/>
	</g>
	<g>
		<path style="fill-rule:evenodd;clip-rule:evenodd;fill:#EA5514;stroke:#FFF100;" d="M420.228,295.474c0,0,1.702-0.604,3.404-1.206
			c1.706-0.595,3.399-1.224,3.399-1.224l-2.46-6.736c0,0-1.667,0.618-3.347,1.204c-1.676,0.594-3.353,1.188-3.353,1.188
			L420.228,295.474z"/>
	</g>
	<g>
		<polygon style="fill-rule:evenodd;clip-rule:evenodd;fill:#EA5514;stroke:#FFF100;" points="413.386,297.793 420.228,295.474 
			417.872,288.7 411.136,290.984 		"/>
	</g>
	<g>
		<path style="fill-rule:evenodd;clip-rule:evenodd;fill:#EA5514;stroke:#FFF100;" d="M406.507,300.002c0,0,1.721-0.549,3.441-1.098
			c1.719-0.555,3.438-1.11,3.438-1.11l-2.25-6.81c0,0-1.691,0.546-3.384,1.093c-1.694,0.541-3.388,1.082-3.388,1.082
			L406.507,300.002z"/>
	</g>
	<g>
		<path style="fill-rule:evenodd;clip-rule:evenodd;fill:#EA5514;stroke:#FFF100;" d="M399.595,302.105c0,0,1.735-0.504,3.459-1.043
			c1.727-0.529,3.453-1.061,3.453-1.061l-2.143-6.843c0,0-1.7,0.521-3.399,1.044c-1.697,0.53-3.405,1.025-3.405,1.025
			L399.595,302.105z"/>
	</g>
	<g>
		<path style="fill-rule:evenodd;clip-rule:evenodd;fill:#EA5514;stroke:#FFF100;" d="M392.651,304.1
			c-0.001,0,1.743-0.471,3.475-0.986c1.734-0.504,3.469-1.008,3.469-1.008l-2.035-6.877c0,0-1.707,0.497-3.415,0.993
			c-1.704,0.507-3.421,0.971-3.421,0.971L392.651,304.1z"/>
	</g>
	<g>
		<path style="fill-rule:evenodd;clip-rule:evenodd;fill:#EA5514;stroke:#FFF100;" d="M385.676,305.986c0,0,1.752-0.443,3.491-0.932
			c1.742-0.477,3.484-0.955,3.484-0.955l-1.928-6.908c0,0-1.715,0.471-3.43,0.94c-1.712,0.48-3.436,0.917-3.436,0.917
			L385.676,305.986z"/>
	</g>
	<g>
		<path style="fill-rule:evenodd;clip-rule:evenodd;fill:#EA5514;stroke:#FFF100;" d="M378.671,307.762c0,0,1.759-0.416,3.506-0.877
			c1.749-0.449,3.499-0.898,3.499-0.898l-1.817-6.938c0,0-1.722,0.441-3.443,0.885c-1.72,0.453-3.449,0.861-3.449,0.861
			L378.671,307.762z"/>
	</g>
	<g>
		<path style="fill-rule:evenodd;clip-rule:evenodd;fill:#EA5514;stroke:#FFF100;" d="M371.639,309.424c0,0,1.765-0.389,3.519-0.82
			c1.757-0.422,3.514-0.842,3.514-0.842l-1.705-6.967c0,0-1.729,0.414-3.458,0.828c-1.727,0.426-3.462,0.809-3.462,0.809
			L371.639,309.424z"/>
	</g>
	<g>
		<path style="fill-rule:evenodd;clip-rule:evenodd;fill:#EA5514;stroke:#FFF100;" d="M364.579,310.975c0,0,0.442-0.092,1.106-0.23
			c0.661-0.146,1.543-0.342,2.426-0.537c1.764-0.393,3.527-0.783,3.527-0.783l-1.593-6.992c0,0-1.735,0.385-3.471,0.77
			c-0.868,0.193-1.735,0.385-2.387,0.529c-0.652,0.135-1.087,0.225-1.087,0.225L364.579,310.975z"/>
	</g>
	<g>
		<polygon style="fill-rule:evenodd;clip-rule:evenodd;fill:#EA5514;stroke:#FFF100;" points="357.495,312.408 364.579,310.975 
			363.102,303.955 356.133,305.367 		"/>
	</g>
	<g>
		<polygon style="fill-rule:evenodd;clip-rule:evenodd;fill:#EA5514;stroke:#FFF100;" points="350.388,313.725 357.495,312.408 
			356.133,305.367 349.144,306.662 		"/>
	</g>
	<g>
		<polygon style="fill-rule:evenodd;clip-rule:evenodd;fill:#EA5514;stroke:#FFF100;" points="343.257,314.912 350.388,313.725 
			349.144,306.662 342.132,307.83 		"/>
	</g>
	<g>
		<path style="fill-rule:evenodd;clip-rule:evenodd;fill:#EA5514;stroke:#FFF100;" d="M336.106,315.98c0,0,1.788-0.262,3.576-0.525
			c0.895-0.131,1.789-0.262,2.459-0.361c0.669-0.107,1.115-0.182,1.115-0.182l-1.125-7.082c0,0-0.438,0.072-1.096,0.178
			c-0.659,0.098-1.538,0.227-2.418,0.355c-1.758,0.258-3.516,0.516-3.516,0.516L336.106,315.98z"/>
	</g>
	<g>
		<path style="fill-rule:evenodd;clip-rule:evenodd;fill:#EA5514;stroke:#FFF100;" d="M328.938,316.926c0,0,1.793-0.229,3.587-0.455
			c1.795-0.213,3.582-0.49,3.582-0.49l-1.004-7.102c0,0-1.756,0.273-3.521,0.482c-1.763,0.223-3.524,0.447-3.524,0.447
			L328.938,316.926z"/>
	</g>
	<g>
		<path style="fill-rule:evenodd;clip-rule:evenodd;fill:#EA5514;stroke:#FFF100;" d="M321.753,317.748c0,0,1.798-0.191,3.596-0.383
			c1.798-0.195,3.589-0.439,3.589-0.439l-0.88-7.117c0,0-1.761,0.238-3.527,0.432c-1.766,0.188-3.532,0.375-3.532,0.375
			L321.753,317.748z"/>
	</g>
	<g>
		<path style="fill-rule:evenodd;clip-rule:evenodd;fill:#EA5514;stroke:#FFF100;" d="M314.555,318.447c0,0,1.802-0.158,3.603-0.316
			c1.798-0.191,3.596-0.383,3.596-0.383l-0.755-7.133c0,0-1.767,0.189-3.533,0.377c-1.77,0.154-3.538,0.311-3.538,0.311
			L314.555,318.447z"/>
	</g>
	<g>
		<path style="fill-rule:evenodd;clip-rule:evenodd;fill:#EA5514;stroke:#FFF100;" d="M307.345,319.02c0,0,1.807-0.094,3.607-0.264
			c1.802-0.154,3.603-0.309,3.603-0.309l-0.628-7.145c0,0-1.771,0.15-3.54,0.303c-1.769,0.168-3.542,0.26-3.542,0.26L307.345,319.02
			z"/>
	</g>
	<g>
		<path style="fill-rule:evenodd;clip-rule:evenodd;fill:#EA5514;stroke:#FFF100;" d="M300.125,319.469c0,0,0.452-0.021,1.129-0.057
			c0.677-0.043,1.579-0.102,2.481-0.16c1.805-0.115,3.609-0.232,3.609-0.232l-0.5-7.154c0,0-1.772,0.115-3.545,0.229
			c-0.886,0.059-1.771,0.115-2.437,0.158c-0.665,0.033-1.108,0.055-1.108,0.055L300.125,319.469z"/>
	</g>
	<g>
		<polygon style="fill-rule:evenodd;clip-rule:evenodd;fill:#EA5514;stroke:#FFF100;" points="292.897,319.777 300.125,319.469 
			299.755,312.307 292.658,312.609 		"/>
	</g>
	<g>
		<path style="fill-rule:evenodd;clip-rule:evenodd;fill:#EA5514;stroke:#FFF100;" d="M285.664,319.939c0,0,1.809-0.037,3.617-0.074
			c0.904-0.018,1.809-0.035,2.486-0.051c0.679-0.008,1.13-0.037,1.13-0.037l-0.239-7.168c0,0-0.443,0.029-1.108,0.037
			c-0.666,0.014-1.554,0.031-2.441,0.051c-1.774,0.035-3.55,0.072-3.55,0.072L285.664,319.939z"/>
	</g>
	<g>
		<path style="fill-rule:evenodd;clip-rule:evenodd;fill:#EA5514;stroke:#FFF100;" d="M278.429,319.973c0,0,1.809,0.004,3.618,0.008
			c0.904,0.008,1.809,0.002,2.487-0.018c0.678-0.014,1.13-0.023,1.13-0.023l-0.105-7.17c0,0-0.444,0.008-1.109,0.021
			c-0.666,0.021-1.554,0.025-2.441,0.018c-1.775-0.004-3.551-0.008-3.551-0.008L278.429,319.973z"/>
	</g>
	<g>
		<path style="fill-rule:evenodd;clip-rule:evenodd;fill:#EA5514;stroke:#FFF100;" d="M271.193,319.875c0,0,1.809,0.043,3.617,0.088
			c1.809,0.004,3.618,0.01,3.618,0.01l0.028-7.172c0,0-1.774-0.004-3.55-0.01c-1.774-0.043-3.549-0.086-3.549-0.086L271.193,319.875
			z"/>
	</g>
	<g>
		<path style="fill-rule:evenodd;clip-rule:evenodd;fill:#EA5514;stroke:#FFF100;" d="M263.959,319.648
			c0.001,0,1.808,0.102,3.616,0.133c1.809,0.047,3.618,0.094,3.618,0.094l0.165-7.17c0,0-1.774-0.047-3.55-0.092
			c-1.774-0.029-3.547-0.131-3.547-0.131L263.959,319.648z"/>
	</g>
	<g>
		<polygon style="fill-rule:evenodd;clip-rule:evenodd;fill:#EA5514;stroke:#FFF100;" points="256.73,319.287 263.959,319.648 
			264.262,312.482 257.171,312.129 		"/>
	</g>
	<g>
		<polygon style="fill-rule:evenodd;clip-rule:evenodd;fill:#EA5514;stroke:#FFF100;" points="249.512,318.754 256.73,319.287 
			257.171,312.129 250.092,311.605 		"/>
	</g>
	<g>
		<path style="fill-rule:evenodd;clip-rule:evenodd;fill:#EA5514;stroke:#FFF100;" d="M242.304,318.09c0,0,1.801,0.18,3.602,0.359
			c0.899,0.096,1.801,0.178,2.479,0.221c0.677,0.051,1.128,0.084,1.128,0.084l0.58-7.148c0,0-0.442-0.033-1.106-0.082
			c-0.664-0.043-1.548-0.121-2.43-0.217c-1.766-0.176-3.531-0.354-3.531-0.354L242.304,318.09z"/>
	</g>
	<g>
		<path style="fill-rule:evenodd;clip-rule:evenodd;fill:#EA5514;stroke:#FFF100;" d="M235.108,317.295c0,0,1.794,0.242,3.594,0.434
			c1.801,0.182,3.602,0.361,3.602,0.361l0.721-7.137c0,0-1.767-0.176-3.532-0.352c-1.764-0.188-3.522-0.428-3.522-0.428
			L235.108,317.295z"/>
	</g>
	<g>
		<path style="fill-rule:evenodd;clip-rule:evenodd;fill:#EA5514;stroke:#FFF100;" d="M227.928,316.371c0,0,0.446,0.076,1.119,0.16
			c0.674,0.084,1.571,0.197,2.47,0.311c1.796,0.227,3.592,0.453,3.592,0.453l0.861-7.121c0,0-1.761-0.221-3.521-0.443
			c-0.881-0.109-1.761-0.221-2.421-0.305c-0.66-0.08-1.098-0.156-1.098-0.156L227.928,316.371z"/>
	</g>
	<g>
		<polygon style="fill-rule:evenodd;clip-rule:evenodd;fill:#EA5514;stroke:#FFF100;" points="220.77,315.277 227.928,316.371 
			228.931,309.27 221.915,308.199 		"/>
	</g>
	<g>
		<path style="fill-rule:evenodd;clip-rule:evenodd;fill:#EA5514;stroke:#FFF100;" d="M213.637,314.037c0,0,1.781,0.32,3.563,0.641
			c1.778,0.338,3.569,0.6,3.569,0.6l1.146-7.078c0-0.002-1.756-0.258-3.499-0.59c-1.746-0.314-3.492-0.629-3.492-0.629
			L213.637,314.037z"/>
	</g>
	<g>
		<path style="fill-rule:evenodd;clip-rule:evenodd;fill:#EA5514;stroke:#FFF100;" d="M206.527,312.666c0,0,1.772,0.365,3.546,0.729
			c1.782,0.32,3.563,0.643,3.563,0.643l1.287-7.057c0,0-1.746-0.313-3.492-0.627c-1.737-0.357-3.476-0.715-3.476-0.715
			L206.527,312.666z"/>
	</g>
	<g>
		<path style="fill-rule:evenodd;clip-rule:evenodd;fill:#EA5514;stroke:#FFF100;" d="M199.442,311.172c0,0,0.438,0.113,1.103,0.25
			c0.665,0.139,1.551,0.322,2.438,0.508c1.772,0.367,3.545,0.736,3.545,0.736l1.429-7.027c0,0-1.736-0.361-3.474-0.723
			c-0.868-0.18-1.736-0.361-2.388-0.496s-1.081-0.246-1.081-0.246L199.442,311.172z"/>
	</g>
	<g>
		<polygon style="fill-rule:evenodd;clip-rule:evenodd;fill:#EA5514;stroke:#FFF100;" points="192.396,309.502 199.442,311.172 
			201.014,304.174 194.109,302.537 		"/>
	</g>
	<g>
		<path style="fill-rule:evenodd;clip-rule:evenodd;fill:#EA5514;stroke:#FFF100;" d="M185.386,307.688c0,0,1.749,0.467,3.498,0.932
			c1.744,0.488,3.512,0.883,3.512,0.883l1.714-6.965c-0.001,0-1.732-0.387-3.441-0.863c-1.714-0.457-3.428-0.914-3.428-0.914
			L185.386,307.688z"/>
	</g>
	<g>
		<path style="fill-rule:evenodd;clip-rule:evenodd;fill:#EA5514;stroke:#FFF100;" d="M178.408,305.752c0,0,0.434,0.129,1.085,0.322
			c0.65,0.193,1.517,0.457,2.394,0.68c1.75,0.467,3.499,0.934,3.499,0.934l1.854-6.928c0,0-1.715-0.457-3.429-0.914
			c-0.859-0.219-1.708-0.477-2.346-0.668c-0.638-0.189-1.063-0.315-1.063-0.315L178.408,305.752z"/>
	</g>
	<g>
		<polygon style="fill-rule:evenodd;clip-rule:evenodd;fill:#EA5514;stroke:#FFF100;" points="171.467,303.688 178.408,305.752 
			180.403,298.863 173.601,296.841 		"/>
	</g>
	<g>
		<polygon style="fill-rule:evenodd;clip-rule:evenodd;fill:#EA5514;stroke:#FFF100;" points="164.584,301.438 171.467,303.688 
			173.601,296.841 166.857,294.634 		"/>
	</g>
	<g>
		<path style="fill-rule:evenodd;clip-rule:evenodd;fill:#EA5514;stroke:#FFF100;" d="M157.742,299.07c0,0,1.703,0.615,3.405,1.229
			c1.719,0.57,3.438,1.139,3.438,1.139l2.272-6.803c0,0-1.684-0.557-3.369-1.113c-1.668-0.603-3.337-1.205-3.337-1.205
			L157.742,299.07z"/>
	</g>
	<g>
		<path style="fill-rule:evenodd;clip-rule:evenodd;fill:#EA5514;stroke:#FFF100;" d="M150.938,296.594c0,0,0.417,0.178,1.058,0.402
			c0.638,0.23,1.49,0.538,2.341,0.845c1.703,0.615,3.406,1.229,3.406,1.229l2.409-6.754c0,0-1.668-0.603-3.337-1.205
			c-0.834-0.301-1.669-0.602-2.294-0.828c-0.628-0.219-1.037-0.394-1.037-0.394L150.938,296.594z"/>
	</g>
	<g>
		<polygon style="fill-rule:evenodd;clip-rule:evenodd;fill:#EA5514;stroke:#FFF100;" points="144.202,293.938 150.938,296.594 
			153.483,289.889 146.88,287.286 		"/>
	</g>
	<g>
		<path style="fill-rule:evenodd;clip-rule:evenodd;fill:#EA5514;stroke:#FFF100;" d="M137.517,291.159c0,0,1.664,0.713,3.328,1.426
			c0.828,0.367,1.674,0.688,2.305,0.938c0.631,0.249,1.052,0.415,1.052,0.415l2.679-6.652c0,0-0.413-0.163-1.032-0.407
			c-0.618-0.245-1.448-0.56-2.259-0.92c-1.631-0.698-3.262-1.397-3.262-1.397L137.517,291.159z"/>
	</g>
	<g>
		<path style="fill-rule:evenodd;clip-rule:evenodd;fill:#EA5514;stroke:#FFF100;" d="M130.876,288.278c0,0,0.411,0.19,1.027,0.475
			c0.624,0.268,1.456,0.624,2.287,0.98c1.664,0.713,3.327,1.426,3.327,1.426l2.811-6.598c0,0-1.631-0.699-3.262-1.398
			c-0.815-0.349-1.631-0.698-2.243-0.961c-0.604-0.278-1.007-0.465-1.007-0.465L130.876,288.278z"/>
	</g>
	<g>
		<polygon style="fill-rule:evenodd;clip-rule:evenodd;fill:#EA5514;stroke:#FFF100;" points="124.309,285.232 130.876,288.278 
			133.816,281.737 127.377,278.75 		"/>
	</g>
	<g>
		<path style="fill-rule:evenodd;clip-rule:evenodd;fill:#EA5514;stroke:#FFF100;" d="M117.802,282.062c0,0,1.619,0.81,3.237,1.619
			c0.804,0.415,1.628,0.789,2.244,1.074c0.615,0.286,1.026,0.477,1.026,0.477l3.068-6.482c0,0-0.403-0.187-1.006-0.467
			s-1.412-0.646-2.201-1.054c-1.587-0.794-3.174-1.589-3.174-1.589L117.802,282.062z"/>
	</g>
	<g>
		<path style="fill-rule:evenodd;clip-rule:evenodd;fill:#EA5514;stroke:#FFF100;" d="M111.34,278.802c0,0,0.394,0.223,1,0.526
			c0.607,0.304,1.416,0.709,2.225,1.114c1.618,0.81,3.236,1.619,3.236,1.619l3.194-6.422c0,0-1.587-0.794-3.174-1.588
			c-0.794-0.397-1.587-0.794-2.183-1.092s-0.981-0.517-0.981-0.518L111.34,278.802z"/>
	</g>
	<g>
		<polygon style="fill-rule:evenodd;clip-rule:evenodd;fill:#EA5514;stroke:#FFF100;" points="104.967,275.374 111.34,278.802 
			114.658,272.443 108.405,269.079 		"/>
	</g>
	<g>
		<path style="fill-rule:evenodd;clip-rule:evenodd;fill:#EA5514;stroke:#FFF100;" d="M98.652,271.841c0,0,1.567,0.904,3.134,1.808
			c1.59,0.862,3.181,1.725,3.181,1.725l3.438-6.295c0,0-1.561-0.846-3.121-1.691c-1.538-0.887-3.076-1.774-3.076-1.774
			L98.652,271.841z"/>
	</g>
	<g>
		<polygon style="fill-rule:evenodd;clip-rule:evenodd;fill:#EA5514;stroke:#FFF100;" points="92.385,268.226 98.652,271.841 
			102.208,265.613 96.056,262.065 		"/>
	</g>
	<g>
		<path style="fill-rule:evenodd;clip-rule:evenodd;fill:#EA5514;stroke:#FFF100;" d="M99.352,256.534l5.132-8.612
			c0,0-7.493,1.281-15.266,2.353c-3.836,0.473-7.729,0.911-10.675,1.222c-1.478,0.152-2.709,0.279-3.571,0.368
			c-0.857,0.072-1.347,0.113-1.347,0.113s0.138,0.478,0.379,1.313c0.254,0.824,0.619,2.001,1.055,3.414
			c0.883,2.832,2.095,6.631,3.364,10.466c2.606,7.528,5.535,15.2,5.535,15.2l5.132-8.613L99.352,256.534z"/>
	</g>
</g>
<g>
	<path style="fill:#EA5514;stroke:#FFF100;" d="M214.042,260.696c0.866,0.025,1.311,0.384,1.336,1.076
		c-0.05,0.471-0.396,0.866-1.039,1.188c-5.072,3.068-7.892,4.602-8.461,4.602c-0.644,0-0.99-0.309-1.039-0.928
		c0.049-0.742,0.396-1.273,1.039-1.596C210.504,262.217,213.226,260.77,214.042,260.696z M214.821,269.639
		c0.841,0.025,1.286,0.371,1.336,1.039c-0.05,0.471-0.396,0.854-1.039,1.15c-1.88,1.089-3.451,1.967-4.713,2.635
		c0.049,0.1,0.074,0.211,0.074,0.334c-0.025,0.619-0.099,2.215-0.223,4.787c-0.124,2.647-0.186,5.406-0.186,8.275
		c-0.099,0.767-0.458,1.162-1.076,1.188c-0.619-0.05-0.965-0.495-1.039-1.336c0-2.919,0.148-6.977,0.445-12.172
		c-1.212,0.594-1.955,0.891-2.227,0.891c-0.644,0-0.978-0.284-1.002-0.854c0.024-0.767,0.358-1.311,1.002-1.633
		C211.048,271.124,213.931,269.689,214.821,269.639z M225.509,257.579c0.643,0.025,1.076,0.285,1.299,0.779
		c0.52,1.484,1.15,2.82,1.893,4.008c0.42,0.569,0.643,1.052,0.668,1.447v0.074c1.756-0.024,3.637-0.049,5.641-0.074
		c1.41,0,2.152,0.359,2.227,1.076c-0.05,0.594-0.408,0.94-1.076,1.039c-3.513,0-6.445,0.025-8.795,0.074
		c0.049,0.174,0.074,0.347,0.074,0.52c0.049,2.523,0.099,4.948,0.148,7.273c4.28,0.297,6.754,0.495,7.422,0.594
		c0.742,0.223,1.125,0.619,1.15,1.188c-0.05,0.742-0.433,1.126-1.15,1.15c-1.262,0-3.711-0.136-7.348-0.408
		c0.049,2.4,0.099,4.701,0.148,6.902c0.024,1.361,0.037,2.412,0.037,3.154c2.399-0.05,5.071-0.1,8.016-0.148
		c1.237,0.024,1.88,0.371,1.93,1.039c-0.025,0.643-0.359,1.002-1.002,1.076c-6.531,0.049-11.455,0.197-14.77,0.445
		c-2.054,0.123-4.008,0.21-5.863,0.26c-0.866-0.025-1.312-0.359-1.336-1.002c0-0.594,0.445-0.94,1.336-1.039
		c2.35-0.223,5.604-0.408,9.76-0.557c-0.025-0.471-0.062-1.076-0.111-1.818c-0.099-2.845-0.186-5.678-0.26-8.498
		c-2.029-0.148-4.33-0.334-6.902-0.557c-0.767-0.197-1.163-0.594-1.188-1.188c0.024-0.767,0.52-1.175,1.484-1.225
		c0.915,0,3.08,0.137,6.494,0.408c-0.099-2.523-0.186-5.021-0.26-7.496c-1.781,0.05-3.08,0.124-3.896,0.223
		c-1.905,0.174-3.328,0.285-4.268,0.334c-0.816-0.024-1.262-0.371-1.336-1.039c0.024-0.47,0.334-0.804,0.928-1.002
		c1.806-0.297,5.146-0.507,10.02-0.631c-1.435-2.523-2.152-4.255-2.152-5.195C224.494,258.049,224.841,257.653,225.509,257.579z"/>
	<path style="fill:#EA5514;stroke:#FFF100;" d="M245.511,264.889c1.188,0,3.624,0.037,7.311,0.111
		c1.435-2.35,2.857-4.564,4.268-6.643c0.42-0.321,0.816-0.482,1.188-0.482c0.544,0.074,0.854,0.371,0.928,0.891
		c-0.025,0.322-0.173,0.681-0.445,1.076c-1.039,1.707-2.066,3.439-3.08,5.195c1.063,0.025,2.177,0.05,3.34,0.074
		c8.461,0.174,13.322,0.285,14.584,0.334c0.742,0.272,1.138,0.668,1.188,1.188c-0.074,0.768-0.47,1.176-1.188,1.225
		c-2.82,0-9.277-0.123-19.371-0.371c-2.944,4.973-5.938,10.181-8.98,15.623c-0.371,0.396-0.73,0.606-1.076,0.631
		c-0.52-0.074-0.804-0.383-0.854-0.928c0-0.371,0.099-0.767,0.297-1.188c2.573-5.146,5.158-9.896,7.756-14.25
		c-1.955-0.049-3.996-0.099-6.123-0.148c-0.792-0.148-1.2-0.531-1.225-1.15C244.076,265.31,244.57,264.915,245.511,264.889z
		 M270.745,272.756c0.816,0.025,1.225,0.371,1.225,1.039c-0.05,0.471-0.359,0.755-0.928,0.854c-1.237,0.322-3.81,0.755-7.719,1.299
		c-0.594,0.1-1.212,0.174-1.855,0.223c0.148,0.322,0.223,0.668,0.223,1.039c-0.025,3.019-0.062,5.789-0.111,8.313
		c-0.025,0.618-0.037,1.113-0.037,1.484c3.488-0.124,7.409-0.223,11.764-0.297c1.113,0.024,1.707,0.309,1.781,0.854
		c-0.05,0.643-0.408,1.002-1.076,1.076c-7.991,0.099-14.027,0.321-18.109,0.668c-2.523,0.247-4.948,0.42-7.273,0.52
		c-0.767-0.05-1.163-0.396-1.188-1.039c0-0.495,0.445-0.805,1.336-0.928c2.696-0.322,6.309-0.582,10.836-0.779
		c0-0.223-0.013-0.482-0.037-0.779c-0.025-3.266-0.05-6.457-0.074-9.574c0-0.148,0.012-0.271,0.037-0.371
		c-1.757,0.124-3.55,0.198-5.381,0.223c-0.594,0-1.039-0.074-1.336-0.223c-0.322-0.173-0.482-0.482-0.482-0.928
		c0.049-0.544,0.396-0.841,1.039-0.891c5.813-0.247,10.972-0.767,15.475-1.559C269.595,272.831,270.226,272.756,270.745,272.756z"/>
	<path style="fill:#EA5514;stroke:#FFF100;" d="M290.524,282.813c0.718,0.025,1.101,0.285,1.15,0.779
		c-0.024,0.644-0.47,1.139-1.336,1.484c-2.796,0.965-5.071,1.509-6.828,1.633c-0.916-0.05-1.41-0.445-1.484-1.188
		c0.074-0.544,0.433-0.902,1.076-1.076c3.117-0.371,5.183-0.816,6.197-1.336C289.745,282.937,290.153,282.838,290.524,282.813z
		 M283.659,261.883c0.692,0,1.905,0.31,3.637,0.928c2.622,0.891,3.934,1.93,3.934,3.117c0,1.46-0.668,2.722-2.004,3.785
		c-1.633,1.262-2.759,2.202-3.377,2.82c-0.742,0.495-1.113,0.965-1.113,1.41c0,0.272,0.618,0.508,1.855,0.705
		c0.94,0.223,1.905,0.421,2.895,0.594c0.371,0.198,0.557,0.545,0.557,1.039c-0.024,0.569-0.358,0.879-1.002,0.928
		c-0.692,0-1.484-0.123-2.375-0.371c-1.583-0.445-2.759-0.939-3.525-1.484c-0.544-0.42-0.816-0.891-0.816-1.41
		c0-1.435,0.878-2.832,2.635-4.193c0.668-0.618,1.707-1.496,3.117-2.635c0.544-0.371,0.816-0.717,0.816-1.039
		c0-0.396-0.371-0.692-1.113-0.891c-1.36-0.445-2.783-0.902-4.268-1.373c-0.569-0.247-0.854-0.643-0.854-1.188
		C282.682,262.156,283.016,261.909,283.659,261.883z M294.087,259.991c0.544,0,0.903,0.198,1.076,0.594
		c0.124,0.272,0.198,0.545,0.223,0.816c3.29-1.682,6.197-2.561,8.721-2.635h1.262c2.004,0,3.674,0.52,5.01,1.559
		c1.286,1.015,1.93,2.239,1.93,3.674v0.854c-0.05,0.965-0.26,1.893-0.631,2.783c-0.297,0.792-0.655,1.447-1.076,1.967
		c0.644,0.124,1.175,0.31,1.596,0.557c1.039,0.842,1.571,1.757,1.596,2.746v0.631c0,0.866-0.495,1.831-1.484,2.895
		c-0.297,0.569-0.729,0.879-1.299,0.928c-0.124,0-0.21-0.012-0.26-0.037c0.52,0.99,0.804,2.141,0.854,3.451v1.521
		c-0.024,2.425-0.569,4.725-1.633,6.902c-0.148,0.47-0.507,0.729-1.076,0.779c-0.47-0.025-0.705-0.384-0.705-1.076
		c0-0.421,0.136-1.002,0.408-1.744c0.618-2.103,0.928-3.871,0.928-5.307c0-2.177-0.433-3.648-1.299-4.416
		c-0.816-0.568-1.93-0.854-3.34-0.854c-1.386,0-3.427,0.606-6.123,1.818c-0.692,0.445-1.262,0.693-1.707,0.742
		c0.024,0.445,0.05,0.879,0.074,1.299c1.484-0.321,3.772-0.52,6.865-0.594c1.138,0.025,1.731,0.334,1.781,0.928
		c-0.024,0.619-0.358,0.965-1.002,1.039c-2.548,0.05-4.466,0.161-5.752,0.334c-0.618,0.1-1.212,0.174-1.781,0.223
		c0.05,0.768,0.087,1.497,0.111,2.189c1.312-0.223,3.39-0.358,6.234-0.408c1.113,0.025,1.707,0.334,1.781,0.928
		c-0.05,0.594-0.408,0.928-1.076,1.002c-2.301,0.049-4.032,0.136-5.195,0.26c-0.569,0.074-1.101,0.136-1.596,0.186
		c0,0.049,0,0.111,0,0.186c0.074,0.816,0.111,1.459,0.111,1.93c-0.05,0.643-0.334,0.989-0.854,1.039
		c-0.544-0.05-0.891-0.31-1.039-0.779c-0.074-0.272-0.148-0.705-0.223-1.299c-0.272-3.735-0.557-7.409-0.854-11.021
		c0.024-0.816,0.334-1.262,0.928-1.336c0.544,0,0.891,0.223,1.039,0.668c0.173,0.272,0.26,0.569,0.26,0.891
		c2.399-1.607,4.626-2.412,6.68-2.412h1.336c2.177,0,3.785,0.482,4.824,1.447c0.099,0.1,0.173,0.186,0.223,0.26
		c0.124-0.148,0.235-0.284,0.334-0.408c0.792-0.816,1.188-1.583,1.188-2.301c0-0.643-0.26-1.125-0.779-1.447
		c-0.544-0.371-1.423-0.557-2.635-0.557c-1.954,0-3.946,0.248-5.975,0.742c-2.202,0.471-4.726,1.126-7.57,1.967
		c-0.594,0.223-1.113,0.359-1.559,0.408c0.198,1.064,0.371,2.041,0.52,2.932c0.124,0.322,0.186,0.582,0.186,0.779
		c-0.099,0.668-0.396,1.027-0.891,1.076c-0.544-0.049-0.903-0.297-1.076-0.742c-0.074-0.148-0.148-0.358-0.223-0.631
		c-0.297-1.707-0.606-3.377-0.928-5.01c0.024-0.865,0.31-1.323,0.854-1.373c0.569,0,0.94,0.223,1.113,0.668
		c0.05,0.124,0.087,0.235,0.111,0.334c1.88-0.816,3.995-1.459,6.346-1.93c0.223-0.074,0.421-0.136,0.594-0.186
		c-0.05-1.162-0.334-2.659-0.854-4.49c0.099-0.742,0.433-1.138,1.002-1.188c0.223,0,0.396,0.05,0.52,0.148
		c0.866-0.247,2.672-0.396,5.418-0.445c1.41,0,2.165,0.334,2.264,1.002c-0.05,0.545-0.347,0.854-0.891,0.928
		c-2.722,0-4.416,0.074-5.084,0.223c-0.421,0.074-0.742,0.124-0.965,0.148c0.074,0.272,0.161,0.594,0.26,0.965
		c0.198,0.742,0.321,1.51,0.371,2.301c2.054-0.371,3.81-0.594,5.27-0.668h1.188c0.198,0,0.358,0.013,0.482,0.037
		c0.074-0.223,0.161-0.457,0.26-0.705c0.965-1.806,1.447-3.266,1.447-4.379s-0.445-1.93-1.336-2.449
		c-0.965-0.568-2.338-0.854-4.119-0.854c-2.276,0-5.121,0.805-8.535,2.412c-0.223,0.124-0.421,0.198-0.594,0.223
		c0.247,1.831,0.458,3.514,0.631,5.047c0.099,0.594,0.148,1.052,0.148,1.373c-0.05,0.668-0.334,1.027-0.854,1.076
		c-0.544-0.049-0.903-0.309-1.076-0.779c-0.074-0.223-0.148-0.531-0.223-0.928c-0.347-2.771-0.718-5.467-1.113-8.09
		C293.184,260.486,293.493,260.041,294.087,259.991z"/>
	<path style="fill:#EA5514;stroke:#FFF100;" d="M335.056,258.915c0.569,0.025,0.854,0.285,0.854,0.779
		c0,0.495-0.284,0.829-0.854,1.002c-1.979,0.272-3.772,0.532-5.381,0.779c-0.024,0.619-0.099,1.72-0.223,3.303
		c1.93-0.024,4.082-0.037,6.457-0.037c1.435,0,2.189,0.334,2.264,1.002c-0.05,0.619-0.408,0.965-1.076,1.039
		c-3.117,0-5.702,0.013-7.756,0.037c-0.05,0.545-0.087,1.076-0.111,1.596c2.548,0.1,4.564,0.619,6.049,1.559
		c1.831,1.113,2.746,2.623,2.746,4.527v0.928c0,1.683-0.729,3.043-2.189,4.082c-1.831,1.287-4.119,1.942-6.865,1.967h-0.445
		c-0.024,0.495-0.037,0.953-0.037,1.373c3.958,0.148,6.247,0.235,6.865,0.26c0.742,0.272,1.138,0.668,1.188,1.188
		c-0.074,0.768-0.47,1.176-1.188,1.225c-1.138,0-3.438-0.062-6.902-0.186c-0.074,0.891-0.111,1.731-0.111,2.523
		c1.633-0.124,2.857-0.26,3.674-0.408c0.816-0.1,1.521-0.161,2.115-0.186c0.767,0.024,1.175,0.284,1.225,0.779
		c-0.024,0.568-0.433,1.002-1.225,1.299c-5.195,0.643-9.401,0.989-12.617,1.039c-0.841-0.025-1.286-0.371-1.336-1.039
		c0.05-0.495,0.358-0.829,0.928-1.002c1.979-0.1,3.711-0.198,5.195-0.297c-0.024-0.074-0.037-0.137-0.037-0.186
		c0-0.816,0.013-1.683,0.037-2.598c-1.509-0.049-3.191-0.111-5.047-0.186c-0.792-0.197-1.2-0.594-1.225-1.188
		c0.05-0.767,0.544-1.175,1.484-1.225c0.718,0,2.325,0.037,4.824,0.111c0-0.445,0.013-0.902,0.037-1.373
		c-1.905-0.148-3.513-0.692-4.824-1.633c-1.286-0.891-1.93-2.288-1.93-4.193v-0.445c0-1.262,0.495-2.956,1.484-5.084
		c0.247-0.47,0.644-0.705,1.188-0.705c0.247,0,0.433,0.05,0.557,0.148c0.371-0.148,0.767-0.284,1.188-0.408
		c1.039-0.297,2.054-0.494,3.043-0.594c0.05-0.568,0.087-1.125,0.111-1.67c-1.657,0.025-2.857,0.063-3.6,0.111
		c-1.707,0.074-2.993,0.124-3.859,0.148c-0.816-0.024-1.262-0.358-1.336-1.002c0.024-0.494,0.334-0.841,0.928-1.039
		c1.484-0.099,4.156-0.173,8.016-0.223c0.074-0.989,0.148-2.004,0.223-3.043c-1.534,0.248-2.895,0.471-4.082,0.668
		c-1.36,0.248-2.351,0.371-2.969,0.371c-0.569,0-0.866-0.309-0.891-0.928c0.024-0.494,0.321-0.841,0.891-1.039
		C328.079,259.583,332.928,258.94,335.056,258.915z M326.446,279.436c0.05-1.262,0.111-2.561,0.186-3.896
		c-1.435-0.173-3.08-0.371-4.936-0.594c-0.024,0.174-0.037,0.334-0.037,0.482c0,1.386,0.557,2.4,1.67,3.043
		C323.997,278.966,325.036,279.288,326.446,279.436z M326.743,273.276c0.074-0.915,0.148-1.83,0.223-2.746
		c-0.816,0.223-1.757,0.557-2.82,1.002c-0.668,0.347-1.2,0.532-1.596,0.557c-0.124,0.322-0.223,0.594-0.297,0.816
		C323.045,272.93,324.541,273.053,326.743,273.276z M329.081,270.344c-0.024,0.297-0.05,0.582-0.074,0.854
		c-0.05,0.792-0.099,1.547-0.148,2.264c2.325,0.248,3.687,0.408,4.082,0.482c0.668,0.198,1.015,0.532,1.039,1.002
		c-0.05,0.668-0.396,1.027-1.039,1.076c-0.742,0-2.14-0.099-4.193-0.297c-0.05,1.287-0.099,2.561-0.148,3.822h0.223
		c2.548-0.024,4.453-0.494,5.715-1.41c0.915-0.668,1.373-1.781,1.373-3.34c0-1.509-0.618-2.646-1.855-3.414
		C332.99,270.741,331.332,270.394,329.081,270.344z M343.071,266.93c0.742-3.884,1.286-6.556,1.633-8.016
		c0.223-0.445,0.618-0.68,1.188-0.705c0.495,0.025,0.779,0.31,0.854,0.854c0,0.322-0.087,0.681-0.26,1.076
		c-0.445,2.449-0.878,4.75-1.299,6.902c1.063,0.198,2.054,0.619,2.969,1.262c1.435,1.113,2.152,3.056,2.152,5.826v1.076
		c0,1.781-0.247,3.835-0.742,6.16c-0.421,2.128-0.952,3.798-1.596,5.01c-0.198,0.494-0.507,0.754-0.928,0.779
		c-0.718-0.05-1.101-0.359-1.15-0.928c0.024-0.198,0.148-0.507,0.371-0.928c0.668-1.583,1.188-3.463,1.559-5.641
		c0.272-1.88,0.408-3.303,0.408-4.268c0-2.771-0.507-4.626-1.521-5.566c-0.47-0.346-1.101-0.568-1.893-0.668
		c-1.683,9.08-2.857,15.92-3.525,20.521c-0.247,0.643-0.692,0.977-1.336,1.002c-0.495-0.025-0.755-0.359-0.779-1.002
		c0-0.891,0.655-4.973,1.967-12.246c0.569-3.142,1.076-5.9,1.521-8.275c-0.767,0.174-1.794,0.545-3.08,1.113
		c-0.718,0.297-1.349,0.482-1.893,0.557c-0.644-0.049-0.978-0.396-1.002-1.039c0-0.396,0.136-0.705,0.408-0.928
		c2.152-1.236,4.132-1.88,5.938-1.93H343.071z"/>
</g>
</svg>
