<svg xmlns="http://www.w3.org/2000/svg" width="1067" height="1067" viewBox="0 0 1067 1067" version="1.1">
	<path d="M 529.833 8.860 C 529.650 9.333, 428.025 68.997, 304 141.447 C 179.975 213.896, 78.016 273.697, 77.424 274.337 C 76.656 275.168, 77.565 343.345, 80.609 513 C 82.953 643.625, 84.899 756.237, 84.935 763.250 C 84.978 771.759, 85.363 776, 86.092 776 C 86.693 776, 190.289 840.012, 316.306 918.250 C 442.324 996.487, 545.895 1060.358, 546.465 1060.185 C 547.034 1060.011, 649.672 1000.175, 774.548 927.216 L 1001.596 794.563 1001.214 789.032 C 1001.005 785.989, 998.925 673.571, 996.594 539.213 C 993.012 332.840, 992.133 294.717, 990.927 293.582 C 990.142 292.843, 889.600 230.246, 767.500 154.479 C 645.400 78.711, 542.448 14.758, 538.719 12.360 C 531.773 7.894, 530.415 7.359, 529.833 8.860 M 305 143.547 C 181.525 215.799, 80.099 275.066, 79.610 275.254 C 78.927 275.514, 86.121 736.136, 87.278 766.274 L 87.500 772.048 98.500 765.579 L 109.500 759.109 106.376 579.305 C 104.658 480.412, 102.914 380.201, 102.500 356.613 C 101.906 322.712, 102.007 313.886, 102.982 314.489 C 103.942 315.082, 104.136 312.409, 103.857 302.424 L 103.500 289.597 117.500 281.372 C 198.624 233.713, 508.388 53.055, 508.607 53.273 C 508.765 53.431, 479.068 104.397, 442.614 166.530 C 406.160 228.664, 376.470 279.674, 376.636 279.886 C 377.035 280.394, 534.358 283.976, 534.846 283.488 C 535.440 282.894, 530.644 11.990, 530.041 12.090 C 529.743 12.140, 428.475 71.295, 305 143.547 M 533.766 26.343 C 534.800 81.389, 538.008 270.871, 538.005 276.696 L 538 283.892 551.502 284.196 L 565.003 284.500 564.984 277.500 C 564.973 273.650, 564.093 222.367, 563.028 163.538 C 561.963 104.709, 561.193 56.473, 561.318 56.348 C 561.443 56.223, 653.110 112.973, 765.023 182.459 L 968.500 308.796 969.128 322.148 C 970.109 342.982, 978.007 774.298, 977.442 776.134 C 977.069 777.344, 979.522 779.356, 986.891 783.884 C 992.365 787.248, 997.104 790, 997.422 790 C 997.740 790, 997.995 779.763, 997.988 767.250 C 997.966 724.048, 990.074 295.675, 989.288 295.004 C 988.610 294.425, 537.228 14.285, 534.500 12.750 C 533.849 12.383, 533.593 17.122, 533.766 26.343 M 318.254 166.788 C 216.919 226.030, 134.344 274.590, 134.754 274.700 C 136.216 275.091, 373.119 280.213, 373.429 279.860 C 373.603 279.662, 402.195 230.900, 436.968 171.500 C 471.740 112.100, 500.833 62.487, 501.618 61.250 C 502.403 60.013, 502.923 59.017, 502.773 59.038 C 502.623 59.059, 419.589 107.546, 318.254 166.788 M 564.066 76.191 C 564.235 115.844, 567.657 282.991, 568.313 283.646 C 568.951 284.285, 936.007 293.085, 936.787 292.481 C 937.009 292.310, 570.751 64.699, 565.250 61.589 C 564.272 61.036, 564.014 64.219, 564.066 76.191 M 117.908 283.881 L 106.500 290.578 106.221 304.977 L 105.943 319.377 166.650 420.438 C 200.038 476.022, 227.893 522.304, 228.548 523.287 C 229.577 524.830, 235.149 515.846, 269.422 457.375 C 301.658 402.380, 308.860 389.443, 307.802 388.437 C 307.086 387.755, 270.124 364.632, 225.664 337.052 C 181.203 309.471, 141.337 284.718, 137.071 282.045 L 129.316 277.184 117.908 283.881 M 765.939 397.351 C 669.930 453.533, 590.395 500.175, 589.195 501 C 587.107 502.435, 591.508 505.289, 690.187 566.500 C 746.933 601.700, 793.953 630.500, 794.675 630.500 C 795.398 630.500, 834.478 564.830, 881.521 484.567 L 967.053 338.633 966.776 324.607 L 966.500 310.582 954.049 302.791 C 947.200 298.506, 941.350 295.046, 941.049 295.101 C 940.747 295.157, 861.947 341.170, 765.939 397.351 M 309.238 394.189 C 296.818 414.749, 231.669 526.764, 231.668 527.560 C 231.666 528.815, 301.868 646, 302.621 646 C 303.279 646, 517.221 521.053, 518.317 520.029 C 519.004 519.387, 317.171 393.154, 312.738 391.453 C 311.758 391.077, 310.546 392.025, 309.238 394.189 M 571.275 510.851 C 565.101 514.508, 560.039 517.795, 560.025 518.155 C 559.982 519.268, 781.393 656.316, 781.724 655.381 C 781.895 654.896, 784.697 650, 787.950 644.500 C 792.466 636.865, 793.585 634.230, 792.682 633.359 C 790.358 631.117, 584.806 504.002, 583.665 504.101 C 583.024 504.156, 577.449 507.194, 571.275 510.851 M 546.559 525.432 L 537.618 530.774 529.752 525.845 L 521.887 520.915 413.693 584.083 C 354.187 618.825, 305.136 647.580, 304.692 647.983 C 304.044 648.571, 315.435 669, 316.412 669 C 316.563 669, 366.819 639.688, 428.093 603.862 C 489.367 568.036, 539.950 538.718, 540.500 538.710 C 541.050 538.703, 591.623 569.831, 652.883 607.884 C 714.144 645.938, 765.062 677.498, 766.034 678.018 C 767.544 678.827, 768.670 677.479, 773.790 668.732 C 777.085 663.104, 779.717 658.441, 779.640 658.368 C 778.628 657.414, 556.641 520.013, 556.164 520.045 C 555.799 520.070, 551.476 522.494, 546.559 525.432 M 532.448 545.692 C 528.077 548.253, 478.375 577.297, 422 610.234 C 365.625 643.171, 319.112 670.503, 318.637 670.972 C 318.157 671.448, 363.019 747.126, 419.940 841.861 L 522.105 1011.897 533.557 1018.950 C 539.855 1022.829, 545.405 1026.115, 545.890 1026.251 C 546.374 1026.388, 552.634 1023.128, 559.800 1019.008 L 572.828 1011.515 669.473 846.602 C 747.747 713.036, 765.869 681.459, 764.809 680.477 C 763.751 679.497, 554.140 549.167, 543.448 542.842 L 540.396 541.036 532.448 545.692 M 101.690 766.382 C 95.745 769.868, 90.488 773.120, 90.009 773.610 C 89.506 774.124, 185.536 834.346, 317.541 916.299 L 545.943 1058.098 620.221 1014.689 C 661.075 990.814, 761.325 932.242, 843 884.530 C 924.675 836.818, 992.996 796.872, 994.825 795.763 L 998.149 793.745 994.325 791.555 C 992.221 790.350, 986.792 787.032, 982.261 784.182 C 977.729 781.332, 973.762 779, 973.445 779 C 972.359 779, 950.501 792.171, 950.192 793.012 C 949.841 793.965, 546.874 1029.592, 546.041 1029.330 C 544.897 1028.971, 137.420 775.756, 136 774.522 C 134.526 773.241, 113.271 759.979, 112.761 760.022 C 112.617 760.034, 107.636 762.896, 101.690 766.382" stroke="none" fill="black" fill-rule="evenodd"/>
</svg>