<?xml version="1.0" encoding="iso-8859-1"?>
<!-- Generator: Adobe Illustrator 16.0.0, SVG Export Plug-In . SVG Version: 6.00 Build 0)  -->
<!DOCTYPE svg PUBLIC "-//W3C//DTD SVG 1.1//EN" "http://www.w3.org/Graphics/SVG/1.1/DTD/svg11.dtd">
<svg version="1.1" id="&#x5716;&#x5C64;_1" xmlns="http://www.w3.org/2000/svg" xmlns:xlink="http://www.w3.org/1999/xlink" x="0px"
	 y="0px" width="566.93px" height="595.28px" viewBox="0 0 566.93 595.28" style="enable-background:new 0 0 566.93 595.28;"
	 xml:space="preserve">
<path style="stroke:#000000;stroke-miterlimit:10;" d="M291.78,107.554"/>
<g>
	<polygon style="fill:none;stroke:#000000;stroke-miterlimit:10;" points="116.963,186.568 285.9,87.844 289.136,273.216 
		120.198,371.94 	"/>
	<polygon style="fill:#DCDDDD;stroke:#000000;stroke-miterlimit:10;" points="126.983,192.203 276.277,104.958 129.821,354.827 	"/>
	<polygon style="fill:none;stroke:#000000;stroke-miterlimit:10;" points="459.896,379.249 414.166,405.976 291.746,477.511 
		290.964,477.965 120.202,371.936 129.231,366.662 199.832,325.4 272.334,283.042 273.092,282.587 282.028,277.373 289.133,273.22 
		294.989,276.859 304.52,282.774 378.154,328.492 449.863,373.021 452.021,374.361 	"/>
	<polygon style="fill:#EFEFEF;stroke:#000000;stroke-miterlimit:10;" points="139.425,372.194 204.837,333.965 277.442,291.547 
		278.146,291.125 288.976,284.802 440.675,378.992 291.121,466.386 	"/>
	<polyline style="fill:none;stroke:#000000;stroke-miterlimit:10;" points="459.464,369.334 456.407,193.87 285.646,87.84 
		285.656,88.412 287.43,190.253 288.876,273.22 294.301,276.58 303.832,282.505 377.232,328.084 448.685,372.448 451.321,374.094 
		458.717,378.678 	"/>
	<polygon style="stroke:#000000;stroke-miterlimit:10;" points="129.235,365.629 126.38,202.005 281.543,460.199 	"/>
	<polygon style="fill:#C9CACA;stroke:#000000;stroke-miterlimit:10;" points="299.872,267.64 297.049,105.878 447.748,199.451 
		450.571,361.212 	"/>
	<polygon style="fill:#3E3A39;stroke:#000000;stroke-miterlimit:10;" points="448.205,209.82 451.043,372.443 301.749,459.689 	"/>
	<polygon style="fill:#727171;stroke:#000000;stroke-miterlimit:10;" points="136.184,186.826 437.44,193.615 287.879,281.017 	"/>
	<line style="fill:none;stroke:#000000;stroke-miterlimit:10;" x1="459.464" y1="369.334" x2="459.464" y2="379.249"/>
</g>
</svg>
